# xmcd CD database file
#
# Track frame offsets:
#	150
#	28277
#	42912
#	63410
#	87395
#	104050
#	123310
#	140765
#	160177
#	176397
#	195272
#	221610
#
# Disc length: 3128 seconds
#
# Revision: 0
# Processed by: cddbd v1.5.1PL2 Copyright (c) Steve Scherf et al.
# Submitted via: CDex 1.51
#
DISCID=ac0c360c
DTITLE=より子 - second VERSE
DYEAR=2006
DGENRE=Japanese Pop
TTITLE0=N.Y
TTITLE1=タイヨウ
TTITLE2=さあ今きみと
TTITLE3=HIKARI
TTITLE4=復唱
TTITLE5=second Birthday
TTITLE6=Vant
TTITLE7=koi
TTITLE8=ダイアの花
TTITLE9=ただ手をあなたに伸ばして
TTITLE10=紡ぐ糸
TTITLE11=うた
EXTD=YEAR: 2006
EXTT0=
EXTT1=
EXTT2=
EXTT3=
EXTT4=
EXTT5=
EXTT6=
EXTT7=
EXTT8=
EXTT9=
EXTT10=
EXTT11=
PLAYORDER=
